<?xml version="1.0" standalone="no"?>
<!DOCTYPE svg PUBLIC "-//W3C//DTD SVG 20010904//EN"
 "http://www.w3.org/TR/2001/REC-SVG-20010904/DTD/svg10.dtd">
<svg version="1.0" xmlns="http://www.w3.org/2000/svg"
 width="358.000000pt" height="75.000000pt" viewBox="0 0 358.000000 75.000000"
 preserveAspectRatio="xMidYMid meet">

<g transform="translate(0.000000,75.000000) scale(0.100000,-0.100000)"
fill="#000000" stroke="none">
<path d="M70 375 l0 -295 55 0 c30 0 55 5 55 10 0 6 -20 10 -45 10 l-45 0 0
275 0 275 39 0 c22 0 43 5 46 10 4 6 -15 10 -49 10 l-56 0 0 -295z"/>
<path d="M1080 558 l0 -113 -30 37 c-72 87 -189 65 -235 -44 -34 -83 -2 -196
68 -235 54 -30 149 -4 179 49 12 22 13 21 19 -22 3 -25 7 64 7 198 1 133 0
242 -3 242 -3 0 -5 -51 -5 -112z m-50 -76 c41 -41 58 -102 46 -159 -24 -110
-135 -156 -209 -87 -37 34 -47 63 -47 130 0 96 48 154 128 154 38 0 50 -5 82
-38z"/>
<path d="M1870 660 c0 -5 20 -10 45 -10 l45 0 0 -275 0 -275 -50 0 c-27 0 -50
-4 -50 -10 0 -5 25 -10 55 -10 l55 0 0 295 0 295 -50 0 c-27 0 -50 -4 -50 -10z"/>
<path d="M3140 429 c0 -157 3 -238 10 -234 6 4 10 95 10 241 0 149 -4 234 -10
234 -6 0 -10 -87 -10 -241z"/>
<path d="M2377 635 c-3 -11 -11 -44 -17 -72 l-12 -53 -44 0 c-24 0 -44 -4 -44
-10 0 -5 18 -10 40 -10 45 0 45 0 29 -83 l-12 -57 -46 -2 -46 -1 43 -4 c47 -5
48 -6 31 -83 -6 -27 -9 -56 -6 -63 2 -6 10 15 16 48 21 102 15 95 87 95 72 0
72 0 53 -75 -6 -23 -9 -51 -7 -61 3 -11 10 8 17 41 20 98 17 94 74 98 l52 3
-53 2 c-46 2 -53 5 -48 20 2 9 7 33 11 52 13 70 13 70 66 70 27 0 49 5 49 10
0 6 -22 10 -49 10 l-49 0 14 67 c8 36 12 68 9 71 -6 6 -11 -10 -25 -80 l-11
-58 -68 0 -68 0 14 61 c13 57 13 109 0 64z m113 -158 c0 -8 -5 -39 -11 -70
l-12 -57 -69 0 c-61 0 -69 2 -64 18 2 9 7 33 11 52 13 72 11 70 81 70 47 0 64
-4 64 -13z"/>
<path d="M1202 629 c2 -6 8 -10 13 -10 5 0 11 4 13 10 2 6 -4 11 -13 11 -9 0
-15 -5 -13 -11z"/>
<path d="M344 529 c-18 -5 -40 -21 -50 -36 l-19 -28 -6 35 c-4 19 -6 -44 -6
-140 1 -173 1 -173 6 -50 8 171 34 215 119 208 29 -2 41 -10 59 -37 21 -31 23
-47 25 -165 l1 -131 7 125 c7 128 16 162 54 192 24 20 84 23 107 5 33 -25 39
-55 39 -186 0 -90 4 -131 11 -131 16 0 7 267 -10 298 -33 60 -145 61 -179 2
l-16 -28 -31 33 c-34 37 -65 47 -111 34z"/>
<path d="M3343 529 c-35 -10 -73 -52 -73 -80 0 -47 27 -67 117 -89 68 -16 103
-43 103 -80 0 -80 -144 -104 -200 -33 -23 30 -37 25 -20 -7 26 -48 130 -65
188 -30 44 27 58 60 42 99 -12 31 -44 48 -130 71 -57 15 -80 36 -80 71 0 40
41 69 97 69 36 0 50 -6 75 -30 36 -36 52 -31 18 5 -13 14 -40 29 -59 35 -41
11 -35 11 -78 -1z"/>
<path d="M1212 335 c-1 -110 -6 -206 -11 -214 -5 -8 -22 -20 -38 -27 -24 -11
-25 -12 -7 -13 12 -1 31 7 43 17 21 17 22 23 19 227 l-3 210 -3 -200z"/>
<path d="M1518 394 c-16 -8 -28 -20 -28 -26 0 -6 8 -4 18 5 26 24 75 21 148
-8 65 -26 113 -26 135 1 8 9 8 14 1 14 -6 0 -14 -4 -17 -10 -11 -17 -68 -11
-130 15 -69 28 -90 30 -127 9z"/>
<path d="M2873 373 c32 -2 81 -2 110 0 29 2 3 3 -58 3 -60 0 -84 -1 -52 -3z"/>
</g>
</svg>
